<?xml version="1.0" encoding="UTF-8" standalone="no"?>
<svg
   xmlns:dc="http://purl.org/dc/elements/1.1/"
   xmlns:cc="http://creativecommons.org/ns#"
   xmlns:rdf="http://www.w3.org/1999/02/22-rdf-syntax-ns#"
   xmlns:svg="http://www.w3.org/2000/svg"
   xmlns="http://www.w3.org/2000/svg"
   xmlns:sodipodi="http://sodipodi.sourceforge.net/DTD/sodipodi-0.dtd"
   xmlns:inkscape="http://www.inkscape.org/namespaces/inkscape"
   data-v-423bf9ae=""
   viewBox="0 0 258.81511566978475 163"
   class="iconAbove"
   version="1.1"
   id="svg6693"
   sodipodi:docname="monochrome-black.svg"
   inkscape:version="0.92.5 (2060ec1f9f, 2020-04-08)">
  <metadata
     id="metadata6699">
    <rdf:RDF>
      <cc:Work
         rdf:about="">
        <dc:format>image/svg+xml</dc:format>
        <dc:type
           rdf:resource="http://purl.org/dc/dcmitype/StillImage" />
        <dc:title></dc:title>
      </cc:Work>
    </rdf:RDF>
  </metadata>
  <defs
     id="defs6697" />
  <sodipodi:namedview
     pagecolor="#ffffff"
     bordercolor="#666666"
     borderopacity="1"
     objecttolerance="10"
     gridtolerance="10"
     guidetolerance="10"
     inkscape:pageopacity="0"
     inkscape:pageshadow="2"
     inkscape:window-width="1366"
     inkscape:window-height="704"
     id="namedview6695"
     showgrid="false"
     inkscape:zoom="3.2269939"
     inkscape:cx="129.40756"
     inkscape:cy="81.5"
     inkscape:window-x="0"
     inkscape:window-y="27"
     inkscape:window-maximized="1"
     inkscape:current-layer="svg6693" />
  <!---->
  <!---->
  <!---->
  <!---->
  <g
     data-v-423bf9ae=""
     id="ef5c8b9d-93ee-4dbd-9f53-1eeb149ad6b6"
     transform="matrix(2.9043697,0,0,2.6420215,-14.576506,-7.5254724)"
     style="fill:#000000;stroke:none">
    <style
       id="style6574">.st0{opacity:.99;enable-background:new}.st0,.st1{fill:#010101}.st2{fill:none}</style>
    <path
       class="st0"
       d="m 59.4,23 c -2.8,-1.3 -6,-2.1 -9.3,-2.1 -3.7,0 -7.1,0.9 -10.2,2.5 3.4,0.2 6.7,1.1 9.6,2.7 2.8,-1.8 6.2,-2.9 9.9,-3.1 z m 9.8,7.8 h 0.3 c 3.3,0 6.5,0.7 9.3,2 C 75,27.5 68.9,23.9 62,23.6 c 2.9,1.8 5.4,4.3 7.2,7.2 z"
       id="path6576"
       inkscape:connector-curvature="0"
       style="opacity:0.98999999;fill:#010101;enable-background:new" />
    <path
       class="st0"
       d="m 56.2,31.6 c 0.6,0.7 1.2,1.5 1.7,2.4 3.1,-1.8 6.7,-3 10.5,-3.1 -2,-3 -4.7,-5.5 -7.8,-7.2 -3.8,0 -7.4,1.1 -10.5,2.8 2.3,1.3 4.4,3.1 6.1,5.1 z"
       id="path6578"
       inkscape:connector-curvature="0"
       style="opacity:0.98999999;fill:#010101;enable-background:new" />
    <path
       class="st0"
       d="m 56.2,31.6 c 0.6,0.7 1.2,1.5 1.7,2.4 3.1,-1.8 6.7,-3 10.5,-3.1 -2,-3 -4.7,-5.5 -7.8,-7.2 -3.8,0 -7.4,1.1 -10.5,2.8 2.3,1.3 4.4,3.1 6.1,5.1 z M 91.4,53.1 C 91.3,45.2 87,38.4 80.7,34.6 c 1.8,3.2 2.8,6.9 2.8,10.8 3.2,1.9 5.9,4.5 7.9,7.7 z"
       id="path6580"
       inkscape:connector-curvature="0"
       style="opacity:0.98999999;fill:#010101;enable-background:new" />
    <path
       class="st0"
       d="m 72.6,42.4 c 3.7,0.1 7.1,1 10.2,2.7 C 82.7,41 81.5,37.3 79.5,34 c -3,-1.5 -6.3,-2.4 -9.9,-2.4 1.9,3.1 2.9,6.8 3,10.8 z"
       id="path6582"
       inkscape:connector-curvature="0"
       style="opacity:0.98999999;fill:#010101;enable-background:new" />
    <path
       class="st0"
       d="m 72.6,42.4 c 3.7,0.1 7.1,1 10.2,2.7 C 82.7,41 81.5,37.3 79.5,34 c -3,-1.5 -6.3,-2.4 -9.9,-2.4 1.9,3.1 2.9,6.8 3,10.8 z"
       id="path6584"
       inkscape:connector-curvature="0"
       style="opacity:0.98999999;fill:#010101;enable-background:new" />
    <path
       class="st0"
       d="m 61.3,45.1 c 3.2,-1.7 6.8,-2.7 10.6,-2.8 -0.1,-4 -1.2,-7.7 -3.1,-10.8 -3.8,0.1 -7.5,1.2 -10.6,3.1 1.2,2.1 2.1,4.4 2.6,6.8 0.3,1.2 0.5,2.5 0.5,3.7 z"
       id="path6586"
       inkscape:connector-curvature="0"
       style="opacity:0.98999999;fill:#010101;enable-background:new" />
    <path
       class="st0"
       d="m 61.3,45.1 c 3.2,-1.7 6.8,-2.7 10.6,-2.8 -0.1,-4 -1.2,-7.7 -3.1,-10.8 -3.8,0.1 -7.5,1.2 -10.6,3.1 1.2,2.1 2.1,4.4 2.6,6.8 0.3,1.2 0.5,2.5 0.5,3.7 z"
       id="path6588"
       inkscape:connector-curvature="0"
       style="opacity:0.98999999;fill:#010101;enable-background:new" />
    <path
       class="st0"
       d="m 61.3,45.1 c 3.2,-1.7 6.8,-2.7 10.6,-2.8 -0.1,-4 -1.2,-7.7 -3.1,-10.8 -3.8,0.1 -7.5,1.2 -10.6,3.1 1.2,2.1 2.1,4.4 2.6,6.8 0.3,1.2 0.5,2.5 0.5,3.7 z m 19,11.9 0.1,0.1 c 1.9,-3.2 2.9,-6.9 3,-10.9 0,3.9 -1.2,7.6 -3.1,10.8 z"
       id="path6590"
       inkscape:connector-curvature="0"
       style="opacity:0.98999999;fill:#010101;enable-background:new" />
    <path
       class="st0"
       d="m 80.3,57 0.1,0.1 c 1.9,-3.2 2.9,-6.9 3,-10.9 0,3.9 -1.2,7.6 -3.1,10.8 z"
       id="path6592"
       inkscape:connector-curvature="0"
       style="opacity:0.98999999;fill:#010101;enable-background:new" />
    <path
       class="st0"
       d="m 80.3,57 0.1,0.1 c 1.9,-3.2 2.9,-6.9 3,-10.9 0,3.9 -1.2,7.6 -3.1,10.8 z"
       id="path6594"
       inkscape:connector-curvature="0"
       style="opacity:0.98999999;fill:#010101;enable-background:new" />
    <path
       class="st0"
       d="m 69.9,53.7 c 3.6,0.2 7,1.3 9.9,3 1.9,-3.2 3,-6.9 3,-10.8 -3,-1.7 -6.5,-2.7 -10.2,-2.8 0,3.8 -1,7.4 -2.7,10.6 z"
       id="path6596"
       inkscape:connector-curvature="0"
       style="opacity:0.98999999;fill:#010101;enable-background:new" />
    <path
       class="st0"
       d="m 69.9,53.7 c 3.6,0.2 7,1.3 9.9,3 1.9,-3.2 3,-6.9 3,-10.8 -3,-1.7 -6.5,-2.7 -10.2,-2.8 0,3.8 -1,7.4 -2.7,10.6 z"
       id="path6598"
       inkscape:connector-curvature="0"
       style="opacity:0.98999999;fill:#010101;enable-background:new" />
    <path
       class="st0"
       d="m 69.9,53.7 c 3.6,0.2 7,1.3 9.9,3 1.9,-3.2 3,-6.9 3,-10.8 -3,-1.7 -6.5,-2.7 -10.2,-2.8 0,3.8 -1,7.4 -2.7,10.6 z"
       id="path6600"
       inkscape:connector-curvature="0"
       style="opacity:0.98999999;fill:#010101;enable-background:new" />
    <path
       class="st0"
       d="m 61.3,46 c 0,3.5 -0.8,6.8 -2.2,9.7 2.9,-1.3 6,-2.1 9.4,-2.1 H 69 c 1.8,-3.1 2.8,-6.8 2.9,-10.6 -3.9,0 -7.5,1.1 -10.6,2.9 z"
       id="path6602"
       inkscape:connector-curvature="0"
       style="opacity:0.98999999;fill:#010101;enable-background:new" />
    <path
       class="st0"
       d="m 61.3,46 c 0,3.5 -0.8,6.8 -2.2,9.7 2.9,-1.3 6,-2.1 9.4,-2.1 H 69 c 1.8,-3.1 2.8,-6.8 2.9,-10.6 -3.9,0 -7.5,1.1 -10.6,2.9 z"
       id="path6604"
       inkscape:connector-curvature="0"
       style="opacity:0.98999999;fill:#010101;enable-background:new" />
    <path
       class="st0"
       d="m 61.3,46 c 0,3.5 -0.8,6.8 -2.2,9.7 2.9,-1.3 6,-2.1 9.4,-2.1 H 69 c 1.8,-3.1 2.8,-6.8 2.9,-10.6 -3.9,0 -7.5,1.1 -10.6,2.9 z"
       id="path6606"
       inkscape:connector-curvature="0"
       style="opacity:0.98999999;fill:#010101;enable-background:new" />
    <path
       class="st0"
       d="m 61.3,46 c 0,3.5 -0.8,6.8 -2.2,9.7 2.9,-1.3 6,-2.1 9.4,-2.1 H 69 c 1.8,-3.1 2.8,-6.8 2.9,-10.6 -3.9,0 -7.5,1.1 -10.6,2.9 z"
       id="path6608"
       inkscape:connector-curvature="0"
       style="opacity:0.98999999;fill:#010101;enable-background:new" />
    <path
       class="st0"
       d="m 58.6,56.7 c 3,-1.5 6.4,-2.4 10,-2.4 h -0.1 c -3.5,0 -6.9,0.9 -9.9,2.4 z"
       id="path6610"
       inkscape:connector-curvature="0"
       style="opacity:0.98999999;fill:#010101;enable-background:new" />
    <path
       class="st0"
       d="m 58.6,56.7 c 3,-1.5 6.4,-2.4 10,-2.4 h -0.1 c -3.5,0 -6.9,0.9 -9.9,2.4 z"
       id="path6612"
       inkscape:connector-curvature="0"
       style="opacity:0.98999999;fill:#010101;enable-background:new" />
    <path
       class="st0"
       d="m 58.6,56.7 c 3,-1.5 6.4,-2.4 10,-2.4 h -0.1 c -3.5,0 -6.9,0.9 -9.9,2.4 z"
       id="path6614"
       inkscape:connector-curvature="0"
       style="opacity:0.98999999;fill:#010101;enable-background:new" />
    <path
       class="st0"
       d="m 58.6,56.7 c 3,-1.5 6.4,-2.4 10,-2.4 h -0.1 c -3.5,0 -6.9,0.9 -9.9,2.4 z"
       id="path6616"
       inkscape:connector-curvature="0"
       style="opacity:0.98999999;fill:#010101;enable-background:new" />
    <path
       class="st1"
       d="m 16.1,45.3 c 0.1,-3.5 1,-6.8 2.6,-9.7 -5.3,3.5 -8.9,9.3 -9.6,16 1.8,-2.7 4.2,-4.8 7,-6.3 z"
       id="path6618"
       inkscape:connector-curvature="0"
       style="fill:#010101" />
    <path
       class="st1"
       d="M 16.1,46.1 C 13.2,47.7 10.8,50 9,52.8 v 0.3 c 1.8,-2.8 4.2,-5.2 7.1,-7 z m 21.2,-22 c -6.9,0.4 -13,4.1 -16.7,9.5 3,-1.5 6.4,-2.4 10,-2.5 1.8,-2.8 4,-5.2 6.7,-7 z m -5.8,7 c 3.6,0.1 7.1,1 10.1,2.7 1.8,-3 4.3,-5.5 7.2,-7.3 -3,-1.5 -6.4,-2.4 -10,-2.4 -3.1,1.7 -5.5,4.2 -7.3,7 z"
       id="path6620"
       inkscape:connector-curvature="0"
       style="fill:#010101" />
    <path
       class="st1"
       d="m 42.1,34.1 c 2.9,1.7 5.4,3.9 7.3,6.7 0.5,-0.3 1,-0.5 1.6,-0.7 0.1,0 0.2,-0.1 0.3,-0.1 1.7,-2.2 3.7,-4.1 6,-5.6 -2,-3.1 -4.7,-5.7 -7.9,-7.5 -3,1.8 -5.5,4.3 -7.3,7.2 z M 57.9,34 c -0.5,-0.8 -1.1,-1.6 -1.7,-2.4 0.6,0.8 1.2,1.6 1.7,2.4 z m -5.5,5.7 c 1.9,-0.4 3.4,-0.1 4.4,0.8 0.4,-1 1.2,-2.7 1.9,-2.4 0.3,0.2 0.3,0.5 0.1,0.7 -0.1,0.1 -0.5,0.1 -0.6,-0.2 -0.2,0 -0.9,1.2 -1.3,2 l 0.2,0.2 c 0.5,-0.7 1.6,-1.9 2.1,-1.4 0.2,0.2 0.1,0.5 -0.2,0.6 -0.2,0.1 -0.6,-0.1 -0.4,-0.4 -0.2,-0.1 -1,0.7 -1.6,1.3 l 0.3,0.3 c 0.6,-0.4 1.8,-1 1.9,-0.3 0,0.2 0,0.4 -0.3,0.4 -0.2,0 -0.5,-0.2 -0.3,-0.5 0,-0.1 -0.7,0.2 -1.3,0.4 0.4,0.4 0.6,0.9 0.8,1.4 0.3,0.9 0.1,1.6 -0.4,2.2 0.2,0.4 0.6,0.9 1.3,1 1.1,0.2 -1.1,0.4 -2.2,-0.2 -0.6,0.4 -2.3,0.7 -3,-1.1 -0.3,-1.6 0.5,-2.2 0.5,-2.2 0,0 -0.7,0.4 -1.2,1.1 -0.5,0.7 -0.7,0.7 -0.8,1.8 -0.2,1.7 0.2,2.6 0.4,3.1 0.2,0.7 1,1.8 1.8,2.6 1.7,-2.1 3.7,-3.8 6,-5.2 -0.1,-3.8 -1.2,-7.4 -3,-10.6 -1.8,1.1 -3.6,2.7 -5.1,4.6 z m 5.9,-5.1 c -0.1,0 -0.1,0 0,0 z m -3.2,16.6 c 1.3,1.5 2.3,3 2.6,4 0.1,0.2 0.2,0.6 0.2,1.1 0.1,0 0.2,-0.1 0.2,-0.1 1.6,-3 2.5,-6.3 2.5,-9.9 -2.1,1.3 -3.9,3 -5.5,4.9 z m -36,-6.6 c -0.8,0.3 -1.6,0.7 -2.3,1.1 v 0.1 c 0.7,-0.5 1.5,-0.9 2.3,-1.2 z m 8.1,-2.3 h 0.2 c 0.1,-3.8 1.1,-7.4 2.9,-10.5 -3.8,0.1 -7.3,1.2 -10.4,3 -1.8,3 -2.9,6.4 -3.1,10.1 3.1,-1.6 6.6,-2.6 10.4,-2.6 z"
       id="path6622"
       inkscape:connector-curvature="0"
       style="fill:#010101" />
    <path
       class="st1"
       d="m 41.2,34.4 c -3,-1.6 -6.5,-2.5 -10.1,-2.6 -1.8,3.1 -2.9,6.7 -3,10.6 3.7,0.1 7.1,1.2 10.2,2.9 0,-4 1.1,-7.7 2.9,-10.9 z"
       id="path6624"
       inkscape:connector-curvature="0"
       style="fill:#010101" />
    <path
       class="st1"
       d="m 38.9,45.6 c 1.5,0.9 2.9,2 4.1,3.2 0.3,-0.7 0.5,-1.2 0.6,-1.4 0.4,-0.7 1.8,-4.2 5.2,-6.3 -1.9,-2.6 -4.3,-4.8 -7.1,-6.4 -1.7,3.2 -2.8,6.9 -2.8,10.9 z M 27.2,43 c -2.9,0 -5.6,0.6 -8.1,1.6 -0.8,0.3 -1.5,0.7 -2.3,1.1 V 46 c 0,3.7 0.9,7.1 2.5,10.1 C 22.5,54.3 26.1,53.3 30,53.2 28.4,50.1 27.5,46.7 27.5,43 Z"
       id="path6626"
       inkscape:connector-curvature="0"
       style="fill:#010101" />
    <path
       class="st1"
       d="m 19.6,56.8 c 2.4,-1.4 5.1,-2.3 7.9,-2.8 -2.8,0.4 -5.5,1.3 -7.9,2.8 z m 8.5,-13.7 c 0,3.7 1,7.1 2.6,10.1 3.6,0.1 7,0.9 10,2.5 -1.5,-2.9 -2.3,-6.2 -2.4,-9.6 -3.1,-1.8 -6.5,-2.9 -10.2,-3 z m 10.8,3.4 c 0.1,3.3 1,6.4 2.4,9.2 0.1,-1.7 0.8,-4.3 1.4,-6.1 -1.1,-1.2 -2.4,-2.2 -3.8,-3.1 z"
       id="path6628"
       inkscape:connector-curvature="0"
       style="fill:#010101" />
    <circle
       cx="56"
       cy="43.200001"
       r="0.5"
       id="circle6630" />
    <path
       class="st2"
       d="m 6.1,64.6 h 0.1 z m -0.6,0 z m 2.8,0 H 8 7.1 6.7 9.2 8.9 c -0.3,-0.1 -0.4,0 -0.6,0 z m 48,0 h -1 1.4 z m -31.3,0 h -1.2 1.9 -0.4 c -0.1,-0.1 -0.2,0 -0.3,0 z m 17.6,0 H 43 42.8 Z m -23.3,0 H 20 19.6 c -0.1,-0.1 -0.2,0 -0.3,0 z m -7,0 H 13 Z m -3,0 h 1 -0.4 c -0.2,-0.1 -0.4,0 -0.6,0 z m 1.7,0 h -0.5 z m 9.4,0 h 1 -0.5 c -0.2,-0.1 -0.3,0 -0.5,0 z m 53.6,0 h 4.1 c -1.4,0 -2.8,-0.1 -4.1,0 z m -42.1,0 z m 27.4,0 h -1.6 3.1 z m 6.2,0 H 66 Z m -34.9,0 h 0.6 z m 8.9,0 h 1.3 z"
       id="path6632"
       inkscape:connector-curvature="0"
       style="fill:none" />
    <path
       class="st0"
       d="m 65.5,64.6 h 0.2 z m -7.2,0 h -0.6 z m -2,0 z m 37.8,-0.1 c -0.1,-3.2 -0.8,-6.2 -2.1,-9 -0.3,3.2 -1.3,6.3 -2.8,9 m -30.9,0.1 h 1 c -0.4,0 -0.7,-0.1 -1,0 z m -2,0 h 0.4 z m 9.2,0 h 0.2 z m 0,0 h 0.2 z"
       id="path6634"
       inkscape:connector-curvature="0"
       style="opacity:0.98999999;fill:#010101;enable-background:new" />
    <path
       class="st0"
       d="m 88.4,64.6 c 1.8,-3 2.9,-6.5 3,-10.2 -1.9,-3.4 -4.6,-6.2 -7.9,-8.2 -0.1,4 -1.1,7.7 -3,10.9 3,1.9 5.6,4.5 7.4,7.5 h -0.3 -0.1 z m -32.2,0 h -1.7 z m 0,0 h -1.7 z m 0,0 h -0.9 z m 0,0 h -0.9 z m 0,0 h -0.9 z m 3.1,0 h 1 -2 c 0.3,-0.1 0.6,0 1,0 z"
       id="path6636"
       inkscape:connector-curvature="0"
       style="opacity:0.98999999;fill:#010101;enable-background:new" />
    <path
       class="st0"
       d="m 59.3,64.6 h 1 -2 c 0.3,-0.1 0.6,0 1,0 z m 0,0 h 1 z m 0,0 h 1 z m 0,0 h 1 z m -3,0 h 0.4 z m 0,0 h 0.4 z m 17.1,0 h 13.7 c -1.8,-2.8 -4.1,-5.2 -6.9,-6.9 -1.8,2.7 -4.1,5.1 -6.8,6.9 z"
       id="path6638"
       inkscape:connector-curvature="0"
       style="opacity:0.98999999;fill:#010101;enable-background:new" />
    <path
       class="st0"
       d="m 73.4,64.6 h 13.7 c -1.8,-2.8 -4.1,-5.2 -6.9,-6.9 -1.8,2.7 -4.1,5.1 -6.8,6.9 z"
       id="path6640"
       inkscape:connector-curvature="0"
       style="opacity:0.98999999;fill:#010101;enable-background:new" />
    <path
       class="st0"
       d="m 73.4,64.6 h 13.7 c -1.8,-2.8 -4.1,-5.2 -6.9,-6.9 -1.8,2.7 -4.1,5.1 -6.8,6.9 z m -17.2,0 c 0.1,0 0.1,0 0,0 0.1,0 0.1,0 0,0 0.1,0 0.1,0 0,0 h 0.5 -1.4 z m 0,0 c 0.1,0 0.1,0 0,0 0.1,0 0.1,0 0,0 0.1,0 0.1,0 0,0 h 0.5 -1.4 z m 0,0 c 0.1,0 0.1,0 0,0 0.1,0 0.1,0 0,0 0.1,0 0.1,0 0,0 h 0.5 -1.4 z m 2.1,0 h 2 -2.5 z m 0,0 h 2 -2.5 z m 0,0 h 2 -2.5 z m 7.4,0 h -0.2 z m 0,0 h -0.2 z m 0,0 h -0.2 z m -9.5,0 z m 0,0 z m 0,0 z m 0,0 z m 0,0 c 0.1,0 0.1,0 0,0 0.1,0 0.1,0 0,0 z m 0,0 c 0.1,0 0.1,0 0,0 0.1,0 0.1,0 0,0 z m 0,0 c 0.1,0 0.1,0 0,0 0.1,0 0.1,0 0,0 z m 0,0 c 0.1,0 0.1,0 0,0 0.1,0 0.1,0 0,0 z m 0,0 c 0.1,0 0.1,0 0,0 0.1,0 0.1,0 0,0 z m 0,0 c 0.1,0 0.1,0 0,0 0.1,0 0.1,0 0,0 0.1,0 0.1,0 0,0 z m 0,0 c 0.1,0 0.1,0 0,0 0.1,0 0.1,0 0,0 0.1,0 0.1,0 0,0 z m 0,0 c 0.1,0 0.1,0 0,0 0.1,0 0.1,0 0,0 0.1,0 0.1,0 0,0 z m 0,0 c 0.1,0 0.1,0 0,0 0.1,0 0.1,0 0,0 0.1,0 0.1,0 0,0 z m 0,0 c 0.1,0 0.1,0 0,0 0.1,0 0.1,0 0,0 0.1,0 0.1,0 0,0 z m 0,0 c 0.1,0 0.1,0 0,0 0.1,0 0.1,0 0,0 0.1,0 0.1,0 0,0 z m -1.1,0 h -0.2 z m 0,0 h -0.2 z m 0,0 h -0.2 z m 0,0 h -0.2 z m 0,0 h -0.2 z m -2.4,0 h 0.1 m -0.1,0 h 0.1 m -0.1,0 h 0.1 m -0.1,0 h 0.1 m -0.1,0 h 0.1 M 63.4,61 c 3.3,0.4 6.3,1.5 9.1,3.1 2.8,-1.8 5.2,-4.1 6.9,-6.9 -3,-1.7 -6.3,-2.7 -9.9,-2.9 -1.6,2.7 -3.6,4.9 -6.1,6.7 z"
       id="path6642"
       inkscape:connector-curvature="0"
       style="opacity:0.98999999;fill:#010101;enable-background:new" />
    <path
       class="st0"
       d="m 63.4,61 c 3.3,0.4 6.3,1.5 9.1,3.1 2.8,-1.8 5.2,-4.1 6.9,-6.9 -3,-1.7 -6.3,-2.7 -9.9,-2.9 -1.6,2.7 -3.6,4.9 -6.1,6.7 z"
       id="path6644"
       inkscape:connector-curvature="0"
       style="opacity:0.98999999;fill:#010101;enable-background:new" />
    <path
       class="st0"
       d="m 63.4,61 c 3.3,0.4 6.3,1.5 9.1,3.1 2.8,-1.8 5.2,-4.1 6.9,-6.9 -3,-1.7 -6.3,-2.7 -9.9,-2.9 -1.6,2.7 -3.6,4.9 -6.1,6.7 z"
       id="path6646"
       inkscape:connector-curvature="0"
       style="opacity:0.98999999;fill:#010101;enable-background:new" />
    <path
       class="st0"
       d="m 63.4,61 c 3.3,0.4 6.3,1.5 9.1,3.1 2.8,-1.8 5.2,-4.1 6.9,-6.9 -3,-1.7 -6.3,-2.7 -9.9,-2.9 -1.6,2.7 -3.6,4.9 -6.1,6.7 z"
       id="path6648"
       inkscape:connector-curvature="0"
       style="opacity:0.98999999;fill:#010101;enable-background:new" />
    <path
       class="st0"
       d="M 80.1,57.7 80,57.6 c -1.8,2.8 -4.1,5.2 -6.9,6.9 h 0.3 c 2.7,-1.7 5,-4.1 6.7,-6.8 z"
       id="path6650"
       inkscape:connector-curvature="0"
       style="opacity:0.98999999;fill:#010101;enable-background:new" />
    <path
       class="st0"
       d="M 80.1,57.7 80,57.6 c -1.8,2.8 -4.1,5.2 -6.9,6.9 h 0.3 c 2.7,-1.7 5,-4.1 6.7,-6.8 z"
       id="path6652"
       inkscape:connector-curvature="0"
       style="opacity:0.98999999;fill:#010101;enable-background:new" />
    <path
       class="st0"
       d="M 80.1,57.7 80,57.6 c -1.8,2.8 -4.1,5.2 -6.9,6.9 h 0.3 c 2.7,-1.7 5,-4.1 6.7,-6.8 z"
       id="path6654"
       inkscape:connector-curvature="0"
       style="opacity:0.98999999;fill:#010101;enable-background:new" />
    <path
       class="st0"
       d="M 80.1,57.7 80,57.6 c -1.8,2.8 -4.1,5.2 -6.9,6.9 h 0.3 c 2.7,-1.7 5,-4.1 6.7,-6.8 z M 56.3,64.6 H 71.8 C 69,63 65.9,62 62.6,61.7 c -1.8,1.2 -3.8,2.2 -6,2.9 h -1.2 -0.1 z"
       id="path6656"
       inkscape:connector-curvature="0"
       style="opacity:0.98999999;fill:#010101;enable-background:new" />
    <path
       class="st0"
       d="M 56.3,64.6 H 71.8 C 69,63 65.9,62 62.6,61.7 c -1.8,1.2 -3.8,2.2 -6,2.9 h -1.2 -0.1 z"
       id="path6658"
       inkscape:connector-curvature="0"
       style="opacity:0.98999999;fill:#010101;enable-background:new" />
    <path
       class="st0"
       d="M 56.3,64.6 H 71.8 C 69,63 65.9,62 62.6,61.7 c -1.8,1.2 -3.8,2.2 -6,2.9 h -1.2 -0.1 z"
       id="path6660"
       inkscape:connector-curvature="0"
       style="opacity:0.98999999;fill:#010101;enable-background:new" />
    <path
       class="st0"
       d="M 56.3,64.6 H 71.8 C 69,63 65.9,62 62.6,61.7 c -1.8,1.2 -3.8,2.2 -6,2.9 h -1.2 -0.1 z m -2.5,0 h 1 -1.4 z m 0,0 h 1 -1.4 z m 0,0 h 1 -1.4 z m 0,0 h 1 -1.4 z m 19.3,0 h -0.4 0.5 z m 0,0 h -0.4 0.5 z m 0,0 h -0.4 0.5 z m 0,0 h -0.4 0.5 z m -18,0 h -0.2 z m 0,0 h -0.2 z m 0,0 h -0.2 z m 0,0 h -0.2 z m 0,0 h -0.2 z m 0,0 h -0.2 z m -2.2,0 h 1 -0.5 m -0.5,0 h 1 -0.5 m -0.5,0 h 1 -0.5 m -0.5,0 h 1 -0.5 m -0.5,0 h 1 -0.5 m -0.5,0 h 1 -0.5 m 6.9,0 h 0.9 z m 0,0 h 0.9 z m 0,0 h 0.9 z m 0,0 h 0.9 z m 0,0 h 0.9 z m 0,0 h 0.9 z m 0,0 h 0.9 z m -5.8,0 h 0.4 -0.5 z m 0,0 h 0.4 -0.5 z m 0,0 h 0.4 -0.5 z m 0,0 h 0.4 -0.5 z m 0,0 h 0.4 -0.5 z m 0,0 h 0.4 -0.5 z m 0,0 h 0.4 -0.5 z m 0,0 h 0.4 -0.5 z m 0,0 h 0.4 -0.5 z m 6.6,0 h -0.9 z m 0,0 h -0.9 z m 0,0 h -0.9 z m 0,0 h -0.9 z m 0,0 h -0.9 z m 0,0 h -0.9 z m 0,0 h -0.9 z m 0,0 h -0.9 z m 0,0 h -0.9 z m -0.8,0 h 0.9 z m 0,0 h 0.9 z m 0,0 h 0.9 z m 0,0 h 0.9 z m 0,0 h 0.9 z m 0,0 h 0.9 z m 0,0 h 0.9 z m 0,0 h 0.9 z m 0,0 h 0.9 z m 0,0 h 0.9 z m -5,0 c 0.1,0 0.1,0 0,0 h -0.2 z m 0,0 c 0.1,0 0.1,0 0,0 h -0.2 z m 0,0 c 0.1,0 0.1,0 0,0 h -0.2 z m 0,0 c 0.1,0 0.1,0 0,0 h -0.2 z m 0,0 c 0.1,0 0.1,0 0,0 h -0.2 z m -0.1,0 c -0.1,0 -0.1,0 0,0 z m 0,0 c -0.1,0 -0.1,0 0,0 z m 0,0 c -0.1,0 -0.1,0 0,0 z m 0,0 c -0.1,0 -0.1,0 0,0 z m 0,0 c -0.1,0 -0.1,0 0,0 z m 0,0 c -0.1,0 -0.1,0 0,0 z m 0,0 c -0.1,0 -0.1,0 0,0 z m 0,0 c -0.1,0 -0.1,0 0,0 z m 0,0 c -0.1,0 -0.1,0 0,0 z m 0,0 c -0.1,0 -0.1,0 0,0 z m 0.1,0 h -0.2 z m 0,0 h -0.2 z m 0,0 h -0.2 z m 0,0 h -0.2 z m 0,0 h -0.2 z m 0,0 h -0.2 z m 0,0 h -0.2 z m 0,0 h -0.2 z m 0,0 h -0.2 z m 0,0 h -0.2 z m 0,0 h -0.2 z m 0,0 h -0.1 z m 0,0 h -0.1 z m 0,0 h -0.1 z m 0,0 h -0.1 z m 0,0 h -0.1 z m 0,0 h -0.1 z m 0,0 h -0.1 z m 0,0 h -0.1 z m 0,0 h -0.1 z m 0,0 h -0.1 z m 0,0 h -0.1 z m 0,0 h -0.1 z m 7.1,-3.7 c 2.5,-1.7 4.7,-4 6.3,-6.6 -3.6,0 -7,0.9 -10.1,2.4 -0.2,0.4 -0.4,0.8 -0.7,1.1 -0.1,1 -0.3,2.2 -0.9,3.3 1.3,-0.2 2.5,-0.3 3.9,-0.3 0.5,0.1 1,0.1 1.5,0.1 z"
       id="path6662"
       inkscape:connector-curvature="0"
       style="opacity:0.98999999;fill:#010101;enable-background:new" />
    <path
       class="st0"
       d="m 62.4,60.9 c 2.5,-1.7 4.7,-4 6.3,-6.6 -3.6,0 -7,0.9 -10.1,2.4 -0.2,0.4 -0.4,0.8 -0.7,1.1 -0.1,1 -0.3,2.2 -0.9,3.3 1.3,-0.2 2.5,-0.3 3.9,-0.3 0.5,0.1 1,0.1 1.5,0.1 z"
       id="path6664"
       inkscape:connector-curvature="0"
       style="opacity:0.98999999;fill:#010101;enable-background:new" />
    <path
       class="st0"
       d="m 62.4,60.9 c 2.5,-1.7 4.7,-4 6.3,-6.6 -3.6,0 -7,0.9 -10.1,2.4 -0.2,0.4 -0.4,0.8 -0.7,1.1 -0.1,1 -0.3,2.2 -0.9,3.3 1.3,-0.2 2.5,-0.3 3.9,-0.3 0.5,0.1 1,0.1 1.5,0.1 z"
       id="path6666"
       inkscape:connector-curvature="0"
       style="opacity:0.98999999;fill:#010101;enable-background:new" />
    <path
       class="st0"
       d="m 62.4,60.9 c 2.5,-1.7 4.7,-4 6.3,-6.6 -3.6,0 -7,0.9 -10.1,2.4 -0.2,0.4 -0.4,0.8 -0.7,1.1 -0.1,1 -0.3,2.2 -0.9,3.3 1.3,-0.2 2.5,-0.3 3.9,-0.3 0.5,0.1 1,0.1 1.5,0.1 z"
       id="path6668"
       inkscape:connector-curvature="0"
       style="opacity:0.98999999;fill:#010101;enable-background:new" />
    <path
       class="st0"
       d="m 62.4,60.9 c 2.5,-1.7 4.7,-4 6.3,-6.6 -3.6,0 -7,0.9 -10.1,2.4 -0.2,0.4 -0.4,0.8 -0.7,1.1 -0.1,1 -0.3,2.2 -0.9,3.3 1.3,-0.2 2.5,-0.3 3.9,-0.3 0.5,0.1 1,0.1 1.5,0.1 z m -9.2,3.7 h 1.6 -1.7 c 3,-0.4 5.8,-1.5 8.3,-3 h -0.5 c -1.5,0 -3,0.2 -4.4,0.5 -0.6,0.7 -1.3,1.4 -2.3,2 -0.5,0.3 -1.1,0.4 -1.5,0.6"
       id="path6670"
       inkscape:connector-curvature="0"
       style="opacity:0.98999999;fill:#010101;enable-background:new" />
    <path
       class="st0"
       d="m 53.2,64.6 h 1.6 -1.7 c 3,-0.4 5.8,-1.5 8.3,-3 h -0.5 c -1.5,0 -3,0.2 -4.4,0.5 -0.6,0.7 -1.3,1.4 -2.3,2 -0.5,0.3 -1.1,0.4 -1.5,0.6"
       id="path6672"
       inkscape:connector-curvature="0"
       style="opacity:0.98999999;fill:#010101;enable-background:new" />
    <path
       class="st0"
       d="m 53.2,64.6 h 1.6 -1.7 c 3,-0.4 5.8,-1.5 8.3,-3 h -0.5 c -1.5,0 -3,0.2 -4.4,0.5 -0.6,0.7 -1.3,1.4 -2.3,2 -0.5,0.3 -1.1,0.4 -1.5,0.6"
       id="path6674"
       inkscape:connector-curvature="0"
       style="opacity:0.98999999;fill:#010101;enable-background:new" />
    <path
       class="st0"
       d="m 53.2,64.6 h 1.6 -1.7 c 3,-0.4 5.8,-1.5 8.3,-3 h -0.5 c -1.5,0 -3,0.2 -4.4,0.5 -0.6,0.7 -1.3,1.4 -2.3,2 -0.5,0.3 -1.1,0.4 -1.5,0.6"
       id="path6676"
       inkscape:connector-curvature="0"
       style="opacity:0.98999999;fill:#010101;enable-background:new" />
    <path
       class="st0"
       d="m 53.2,64.6 h 1.6 -1.7 c 3,-0.4 5.8,-1.5 8.3,-3 h -0.5 c -1.5,0 -3,0.2 -4.4,0.5 -0.6,0.7 -1.3,1.4 -2.3,2 -0.5,0.3 -1.1,0.4 -1.5,0.6 m 0.7,-0.1 h -0.2 m 0.2,0 h -0.2 m 0.2,0 h -0.2 m 0.2,0 h -0.2 m 0.2,0 h -0.2 m 0.2,0 h -0.2 m 0.2,0 h -0.2"
       id="path6678"
       inkscape:connector-curvature="0"
       style="opacity:0.98999999;fill:#010101;enable-background:new" />
    <path
       d="M 12.3,64.6 Z"
       id="path6680"
       inkscape:connector-curvature="0"
       style="opacity:0.4" />
    <path
       class="st1"
       d="m 5.5,64.6 h 5.2 -0.2 c 0,-0.1 0.1,-0.1 0.1,-0.2 C 9,61.4 8,57.9 8,54.2 6.2,57.3 5.2,60.8 5.1,64.6 Z M 25.3,64.5 H 25 c 0.1,0.1 0.2,0 0.3,0 h 0.4 c -0.1,0.1 -0.2,0 -0.4,0 z m -5.6,0 h -0.4 c 0.1,0.1 0.2,0 0.4,0 h 0.4 c -0.2,0.1 -0.3,0 -0.4,0 z m 1.2,0 h -0.5 c 0.2,0.1 0.3,0 0.5,0 h 0.5 c -0.2,0.1 -0.3,0 -0.5,0 z m 2.9,0.1 h 0.6 c -0.2,-0.1 -0.4,0 -0.6,0 z m -12.8,0 z m 0.3,0 z"
       id="path6682"
       inkscape:connector-curvature="0"
       style="fill:#010101" />
    <path
       class="st1"
       d="m 20.9,64.5 h 0.5 c -0.2,0.1 -0.3,0 -0.5,0 h -0.5 c 0.2,0.1 0.3,0 0.5,0 z m -8.3,0.1 H 12.4 13 Z m 11.8,-0.1 h 1.3 -1.9 c 0.2,0.1 0.4,0 0.6,0 z m -4.7,0 h 0.4 c -0.2,0.1 -0.3,0 -0.4,0 h -0.4 c 0.1,0.1 0.2,0 0.4,0 z m -1,-8 C 17.1,53.4 16.1,49.9 16.1,46.2 13.2,48 10.8,50.3 9,53.1 v 0.7 c 0,3.6 0.9,6.9 2.4,9.9 1.8,-3 4.3,-5.4 7.3,-7.2 z"
       id="path6684"
       inkscape:connector-curvature="0"
       style="fill:#010101" />
    <path
       class="st1"
       d="m 19.1,57.2 c 0,0 0,-0.1 -0.1,-0.1 -3,1.8 -5.5,4.3 -7.3,7.3 0,0.1 0.1,0.1 0.1,0.2 1.8,-3.1 4.3,-5.6 7.3,-7.4 z m 23.7,7.4 h -0.2 z m -2.5,0 h -0.8 z"
       id="path6686"
       inkscape:connector-curvature="0"
       style="fill:#010101" />
    <path
       class="st1"
       d="m 11.7,64.6 h 14 c -2.8,-1.9 -5.1,-4.5 -6.8,-7.4 -2.8,1.8 -5.3,4.3 -7.2,7.4 0.1,-0.1 0.1,-0.1 0,0 z m 5.9,0 h -4.2 z m 22.7,0 h 0.5 z m 2.5,0 H 43 Z m -12.2,0 h 0.3 z m 12.4,0 h -0.2 z m -12.2,0 h -0.3 z m -4.1,-0.3 c 2.9,-1.8 6.2,-3 9.8,-3.4 -2.6,-1.9 -4.7,-4.3 -6.3,-7.1 -0.9,0 -1.8,0.1 -2.7,0.2 -2.9,0.4 -5.5,1.4 -7.9,2.8 1.8,3.1 4.2,5.6 7.1,7.5 z"
       id="path6688"
       inkscape:connector-curvature="0"
       style="fill:#010101" />
    <path
       class="st1"
       d="m 43.7,64.6 c -2.3,-0.7 -4.4,-1.7 -6.3,-3 -3.5,0.2 -6.8,1.3 -9.7,3 h 15.4 m -5.5,-3.7 h 1.1 c 1.4,0 2.9,0.2 4.2,0.4 -0.8,-1.2 -1.2,-2.6 -1.5,-4.1 -0.1,-0.1 -0.2,-0.3 -0.2,-0.4 -3,-1.7 -6.5,-2.8 -10.2,-2.9 1.7,2.8 4,5.2 6.6,7 z m 7.6,2.6 C 44.6,63.1 44,62.7 43.5,62.2 41.9,61.8 40.3,61.6 38.6,61.6 h -0.1 c 2.6,1.6 5.5,2.6 8.7,3 h 0.2 C 46.7,64.3 46,63.9 45.2,63.5 Z"
       id="path6690"
       inkscape:connector-curvature="0"
       style="fill:#010101" />
  </g>
  <!---->
</svg>
